<?xml version="1.0" encoding="utf-8"?>
<!-- Generator: Adobe Illustrator 15.1.0, SVG Export Plug-In . SVG Version: 6.00 Build 0)  -->
<!DOCTYPE svg PUBLIC "-//W3C//DTD SVG 1.1//EN" "http://www.w3.org/Graphics/SVG/1.1/DTD/svg11.dtd">
<svg version="1.1" id="Layer_1" xmlns="http://www.w3.org/2000/svg" xmlns:xlink="http://www.w3.org/1999/xlink" x="0px" y="0px"
	 width="177.166px" height="177.165px" viewBox="0 0 177.166 177.165" enable-background="new 0 0 177.166 177.165"
	 xml:space="preserve">
<path d="M89.994,92.747c-0.676,0.676-1.772,0.676-2.448,0l-3.991-3.992l-2.158,2.159l6.149,6.149
	c0.677,0.675,1.772,0.675,2.448-0.001l6.15-6.148l-2.158-2.159L89.994,92.747z"/>
<path d="M90.741,101.911c-1.088,1.088-2.853,1.089-3.942,0l-6.428-6.429l-3.476,3.476l9.904,9.905c1.089,1.088,2.854,1.088,3.942,0
	l9.904-9.905l-3.476-3.476L90.741,101.911z"/>
<path d="M91.945,114.507c-1.754,1.753-4.596,1.753-6.349,0l-10.354-10.353l-5.598,5.598l15.952,15.951
	c1.753,1.752,4.595,1.752,6.349,0l15.95-15.952l-5.598-5.597L91.945,114.507z"/>
<path fill="#41AD49" d="M93.882,132.63c-2.823,2.823-7.401,2.823-10.224,0l-16.674-16.674l-9.016,9.016l25.69,25.689
	c2.824,2.821,7.401,2.821,10.224,0l25.689-25.69l-9.016-9.015L93.882,132.63z"/>
<path d="M89.994,84.764c-0.676-0.676-1.772-0.676-2.448,0l-3.991,3.992l-2.158-2.159l6.149-6.15
	c0.677-0.675,1.772-0.675,2.448,0.001l6.15,6.149l-2.158,2.159L89.994,84.764z"/>
<path d="M90.741,75.6c-1.088-1.089-2.853-1.09-3.942,0l-6.428,6.429l-3.476-3.477l9.904-9.904c1.089-1.088,2.854-1.088,3.942,0
	l9.904,9.904l-3.476,3.477L90.741,75.6z"/>
<path d="M91.945,63.003c-1.754-1.753-4.596-1.753-6.349,0L75.242,73.356l-5.598-5.599l15.952-15.95c1.753-1.753,4.595-1.753,6.349,0
	l15.95,15.951l-5.598,5.598L91.945,63.003z"/>
<path fill="#FFF200" d="M93.882,44.88c-2.823-2.822-7.401-2.822-10.224,0L66.984,61.555l-9.016-9.017l25.69-25.689
	c2.824-2.822,7.401-2.822,10.224,0l25.689,25.69l-9.016,9.016L93.882,44.88z"/>
<path d="M84.778,89.979c-0.676-0.677-0.676-1.772,0-2.448l3.992-3.991l-2.159-2.158l-6.15,6.149
	c-0.675,0.677-0.675,1.771,0.001,2.448l6.149,6.149l2.159-2.158L84.778,89.979z"/>
<path d="M75.614,90.727c-1.088-1.088-1.089-2.854,0-3.942l6.429-6.428l-3.476-3.477l-9.905,9.904c-1.088,1.089-1.088,2.854,0,3.942
	l9.905,9.903l3.476-3.475L75.614,90.727z"/>
<path d="M63.018,91.93c-1.753-1.753-1.753-4.596,0-6.349l10.353-10.354l-5.598-5.598L51.822,85.581
	c-1.752,1.753-1.752,4.596,0,6.349l15.952,15.951l5.597-5.599L63.018,91.93z"/>
<path fill="#D2232A" d="M44.895,93.867c-2.823-2.823-2.823-7.4,0-10.224L61.569,66.97l-9.016-9.017l-25.689,25.69
	c-2.822,2.824-2.822,7.4,0,10.224l25.69,25.689l9.015-9.016L44.895,93.867z"/>
<path d="M92.761,89.979c0.676-0.677,0.676-1.772,0-2.448L88.77,83.54l2.159-2.158l6.15,6.149c0.675,0.677,0.675,1.771-0.001,2.448
	l-6.149,6.149l-2.159-2.158L92.761,89.979z"/>
<path d="M101.925,90.727c1.088-1.088,1.09-2.854,0-3.942l-6.429-6.428l3.476-3.477l9.906,9.904c1.088,1.089,1.088,2.854,0,3.942
	l-9.906,9.903l-3.476-3.475L101.925,90.727z"/>
<path d="M114.522,91.93c1.753-1.753,1.753-4.596,0-6.349l-10.353-10.354l5.598-5.598l15.951,15.951c1.752,1.753,1.752,4.596,0,6.349
	l-15.953,15.951l-5.596-5.599L114.522,91.93z"/>
<path fill="#25408F" d="M132.644,93.867c2.824-2.823,2.824-7.4,0-10.224L115.97,66.97l9.016-9.017l25.689,25.69
	c2.822,2.824,2.822,7.4,0,10.224l-25.689,25.689l-9.016-9.016L132.644,93.867z"/>
</svg>
